<svg class="rich-terminal" viewBox="0 0 994 635.5999999999999" xmlns="http://www.w3.org/2000/svg">
    <!-- Generated with Rich https://www.textualize.io -->
    <style>

    @font-face {
        font-family: "Fira Code";
        src: local("FiraCode-Regular"),
                url("https://cdnjs.cloudflare.com/ajax/libs/firacode/6.2.0/woff2/FiraCode-Regular.woff2") format("woff2"),
                url("https://cdnjs.cloudflare.com/ajax/libs/firacode/6.2.0/woff/FiraCode-Regular.woff") format("woff");
        font-style: normal;
        font-weight: 400;
    }
    @font-face {
        font-family: "Fira Code";
        src: local("FiraCode-Bold"),
                url("https://cdnjs.cloudflare.com/ajax/libs/firacode/6.2.0/woff2/FiraCode-Bold.woff2") format("woff2"),
                url("https://cdnjs.cloudflare.com/ajax/libs/firacode/6.2.0/woff/FiraCode-Bold.woff") format("woff");
        font-style: bold;
        font-weight: 700;
    }

    .terminal-1491448710-matrix {
        font-family: Fira Code, monospace;
        font-size: 20px;
        line-height: 24.4px;
        font-variant-east-asian: full-width;
    }

    .terminal-1491448710-title {
        font-size: 18px;
        font-weight: bold;
        font-family: arial;
    }

    .terminal-1491448710-r1 { fill: #3f3f3f }
.terminal-1491448710-r2 { fill: #c5c8c6 }
.terminal-1491448710-r3 { fill: #f5f5f5 }
.terminal-1491448710-r4 { fill: #353535;font-weight: bold }
.terminal-1491448710-r5 { fill: #eaeaea;font-weight: bold }
.terminal-1491448710-r6 { fill: #999999 }
.terminal-1491448710-r7 { fill: #151515 }
.terminal-1491448710-r8 { fill: #161616 }
.terminal-1491448710-r9 { fill: #191919 }
.terminal-1491448710-r10 { fill: #a4a4a4 }
.terminal-1491448710-r11 { fill: #5f5f5f }
.terminal-1491448710-r12 { fill: #e0e0e0 }
.terminal-1491448710-r13 { fill: #7f7f7f }
.terminal-1491448710-r14 { fill: #b2b2b2 }
.terminal-1491448710-r15 { fill: #2d2d2d }
.terminal-1491448710-r16 { fill: #a9a9a9 }
.terminal-1491448710-r17 { fill: #e0e0e0;font-weight: bold }
.terminal-1491448710-r18 { fill: #0d0d0d }
.terminal-1491448710-r19 { fill: #3a3a3a }
.terminal-1491448710-r20 { fill: #353535 }
.terminal-1491448710-r21 { fill: #3e3e3e }
    </style>

    <defs>
    <clipPath id="terminal-1491448710-clip-terminal">
      <rect x="0" y="0" width="975.0" height="584.5999999999999" />
    </clipPath>
    <clipPath id="terminal-1491448710-line-0">
    <rect x="0" y="1.5" width="976" height="24.65"/>
            </clipPath>
<clipPath id="terminal-1491448710-line-1">
    <rect x="0" y="25.9" width="976" height="24.65"/>
            </clipPath>
<clipPath id="terminal-1491448710-line-2">
    <rect x="0" y="50.3" width="976" height="24.65"/>
            </clipPath>
<clipPath id="terminal-1491448710-line-3">
    <rect x="0" y="74.7" width="976" height="24.65"/>
            </clipPath>
<clipPath id="terminal-1491448710-line-4">
    <rect x="0" y="99.1" width="976" height="24.65"/>
            </clipPath>
<clipPath id="terminal-1491448710-line-5">
    <rect x="0" y="123.5" width="976" height="24.65"/>
            </clipPath>
<clipPath id="terminal-1491448710-line-6">
    <rect x="0" y="147.9" width="976" height="24.65"/>
            </clipPath>
<clipPath id="terminal-1491448710-line-7">
    <rect x="0" y="172.3" width="976" height="24.65"/>
            </clipPath>
<clipPath id="terminal-1491448710-line-8">
    <rect x="0" y="196.7" width="976" height="24.65"/>
            </clipPath>
<clipPath id="terminal-1491448710-line-9">
    <rect x="0" y="221.1" width="976" height="24.65"/>
            </clipPath>
<clipPath id="terminal-1491448710-line-10">
    <rect x="0" y="245.5" width="976" height="24.65"/>
            </clipPath>
<clipPath id="terminal-1491448710-line-11">
    <rect x="0" y="269.9" width="976" height="24.65"/>
            </clipPath>
<clipPath id="terminal-1491448710-line-12">
    <rect x="0" y="294.3" width="976" height="24.65"/>
            </clipPath>
<clipPath id="terminal-1491448710-line-13">
    <rect x="0" y="318.7" width="976" height="24.65"/>
            </clipPath>
<clipPath id="terminal-1491448710-line-14">
    <rect x="0" y="343.1" width="976" height="24.65"/>
            </clipPath>
<clipPath id="terminal-1491448710-line-15">
    <rect x="0" y="367.5" width="976" height="24.65"/>
            </clipPath>
<clipPath id="terminal-1491448710-line-16">
    <rect x="0" y="391.9" width="976" height="24.65"/>
            </clipPath>
<clipPath id="terminal-1491448710-line-17">
    <rect x="0" y="416.3" width="976" height="24.65"/>
            </clipPath>
<clipPath id="terminal-1491448710-line-18">
    <rect x="0" y="440.7" width="976" height="24.65"/>
            </clipPath>
<clipPath id="terminal-1491448710-line-19">
    <rect x="0" y="465.1" width="976" height="24.65"/>
            </clipPath>
<clipPath id="terminal-1491448710-line-20">
    <rect x="0" y="489.5" width="976" height="24.65"/>
            </clipPath>
<clipPath id="terminal-1491448710-line-21">
    <rect x="0" y="513.9" width="976" height="24.65"/>
            </clipPath>
<clipPath id="terminal-1491448710-line-22">
    <rect x="0" y="538.3" width="976" height="24.65"/>
            </clipPath>
    </defs>

    <rect fill="#292929" stroke="rgba(255,255,255,0.35)" stroke-width="1" x="1" y="1" width="992" height="633.6" rx="8"/><text class="terminal-1491448710-title" fill="#c5c8c6" text-anchor="middle" x="496" y="27">OpenMuse</text>
            <g transform="translate(26,22)">
            <circle cx="0" cy="0" r="7" fill="#ff5f57"/>
            <circle cx="22" cy="0" r="7" fill="#febc2e"/>
            <circle cx="44" cy="0" r="7" fill="#28c840"/>
            </g>
        
    <g transform="translate(9, 41)" clip-path="url(#terminal-1491448710-clip-terminal)">
    <rect fill="#030303" x="0" y="1.5" width="976" height="24.65" shape-rendering="crispEdges"/><rect fill="#030303" x="0" y="25.9" width="24.4" height="24.65" shape-rendering="crispEdges"/><rect fill="#030303" x="24.4" y="25.9" width="927.2" height="24.65" shape-rendering="crispEdges"/><rect fill="#030303" x="951.6" y="25.9" width="24.4" height="24.65" shape-rendering="crispEdges"/><rect fill="#030303" x="0" y="50.3" width="24.4" height="24.65" shape-rendering="crispEdges"/><rect fill="#040404" x="24.4" y="50.3" width="12.2" height="24.65" shape-rendering="crispEdges"/><rect fill="#040404" x="36.6" y="50.3" width="48.8" height="24.65" shape-rendering="crispEdges"/><rect fill="#040404" x="85.4" y="50.3" width="866.2" height="24.65" shape-rendering="crispEdges"/><rect fill="#030303" x="951.6" y="50.3" width="24.4" height="24.65" shape-rendering="crispEdges"/><rect fill="#030303" x="0" y="74.7" width="24.4" height="24.65" shape-rendering="crispEdges"/><rect fill="#151515" x="24.4" y="74.7" width="12.2" height="24.65" shape-rendering="crispEdges"/><rect fill="#151515" x="36.6" y="74.7" width="329.4" height="24.65" shape-rendering="crispEdges"/><rect fill="#151515" x="366" y="74.7" width="561.2" height="24.65" shape-rendering="crispEdges"/><rect fill="#151515" x="927.2" y="74.7" width="12.2" height="24.65" shape-rendering="crispEdges"/><rect fill="#040404" x="939.4" y="74.7" width="12.2" height="24.65" shape-rendering="crispEdges"/><rect fill="#030303" x="951.6" y="74.7" width="24.4" height="24.65" shape-rendering="crispEdges"/><rect fill="#030303" x="0" y="99.1" width="24.4" height="24.65" shape-rendering="crispEdges"/><rect fill="#151515" x="24.4" y="99.1" width="12.2" height="24.65" shape-rendering="crispEdges"/><rect fill="#151515" x="36.6" y="99.1" width="683.2" height="24.65" shape-rendering="crispEdges"/><rect fill="#151515" x="719.8" y="99.1" width="207.4" height="24.65" shape-rendering="crispEdges"/><rect fill="#151515" x="927.2" y="99.1" width="12.2" height="24.65" shape-rendering="crispEdges"/><rect fill="#040404" x="939.4" y="99.1" width="12.2" height="24.65" shape-rendering="crispEdges"/><rect fill="#030303" x="951.6" y="99.1" width="24.4" height="24.65" shape-rendering="crispEdges"/><rect fill="#030303" x="0" y="123.5" width="24.4" height="24.65" shape-rendering="crispEdges"/><rect fill="#151515" x="24.4" y="123.5" width="12.2" height="24.65" shape-rendering="crispEdges"/><rect fill="#656565" x="36.6" y="123.5" width="732" height="24.65" shape-rendering="crispEdges"/><rect fill="#656565" x="768.6" y="123.5" width="158.6" height="24.65" shape-rendering="crispEdges"/><rect fill="#151515" x="927.2" y="123.5" width="12.2" height="24.65" shape-rendering="crispEdges"/><rect fill="#040404" x="939.4" y="123.5" width="12.2" height="24.65" shape-rendering="crispEdges"/><rect fill="#030303" x="951.6" y="123.5" width="24.4" height="24.65" shape-rendering="crispEdges"/><rect fill="#030303" x="0" y="147.9" width="24.4" height="24.65" shape-rendering="crispEdges"/><rect fill="#151515" x="24.4" y="147.9" width="12.2" height="24.65" shape-rendering="crispEdges"/><rect fill="#282828" x="36.6" y="147.9" width="890.6" height="24.65" shape-rendering="crispEdges"/><rect fill="#151515" x="927.2" y="147.9" width="12.2" height="24.65" shape-rendering="crispEdges"/><rect fill="#040404" x="939.4" y="147.9" width="12.2" height="24.65" shape-rendering="crispEdges"/><rect fill="#030303" x="951.6" y="147.9" width="24.4" height="24.65" shape-rendering="crispEdges"/><rect fill="#030303" x="0" y="172.3" width="24.4" height="24.65" shape-rendering="crispEdges"/><rect fill="#151515" x="24.4" y="172.3" width="12.2" height="24.65" shape-rendering="crispEdges"/><rect fill="#282828" x="36.6" y="172.3" width="890.6" height="24.65" shape-rendering="crispEdges"/><rect fill="#151515" x="927.2" y="172.3" width="12.2" height="24.65" shape-rendering="crispEdges"/><rect fill="#040404" x="939.4" y="172.3" width="12.2" height="24.65" shape-rendering="crispEdges"/><rect fill="#030303" x="951.6" y="172.3" width="24.4" height="24.65" shape-rendering="crispEdges"/><rect fill="#030303" x="0" y="196.7" width="24.4" height="24.65" shape-rendering="crispEdges"/><rect fill="#151515" x="24.4" y="196.7" width="12.2" height="24.65" shape-rendering="crispEdges"/><rect fill="#151515" x="36.6" y="196.7" width="463.6" height="24.65" shape-rendering="crispEdges"/><rect fill="#151515" x="500.2" y="196.7" width="427" height="24.65" shape-rendering="crispEdges"/><rect fill="#151515" x="927.2" y="196.7" width="12.2" height="24.65" shape-rendering="crispEdges"/><rect fill="#040404" x="939.4" y="196.7" width="12.2" height="24.65" shape-rendering="crispEdges"/><rect fill="#030303" x="951.6" y="196.7" width="24.4" height="24.65" shape-rendering="crispEdges"/><rect fill="#030303" x="0" y="221.1" width="24.4" height="24.65" shape-rendering="crispEdges"/><rect fill="#151515" x="24.4" y="221.1" width="12.2" height="24.65" shape-rendering="crispEdges"/><rect fill="#151515" x="36.6" y="221.1" width="402.6" height="24.65" shape-rendering="crispEdges"/><rect fill="#151515" x="439.2" y="221.1" width="488" height="24.65" shape-rendering="crispEdges"/><rect fill="#151515" x="927.2" y="221.1" width="12.2" height="24.65" shape-rendering="crispEdges"/><rect fill="#040404" x="939.4" y="221.1" width="12.2" height="24.65" shape-rendering="crispEdges"/><rect fill="#030303" x="951.6" y="221.1" width="24.4" height="24.65" shape-rendering="crispEdges"/><rect fill="#030303" x="0" y="245.5" width="24.4" height="24.65" shape-rendering="crispEdges"/><rect fill="#151515" x="24.4" y="245.5" width="12.2" height="24.65" shape-rendering="crispEdges"/><rect fill="#151515" x="36.6" y="245.5" width="341.6" height="24.65" shape-rendering="crispEdges"/><rect fill="#151515" x="378.2" y="245.5" width="549" height="24.65" shape-rendering="crispEdges"/><rect fill="#151515" x="927.2" y="245.5" width="12.2" height="24.65" shape-rendering="crispEdges"/><rect fill="#040404" x="939.4" y="245.5" width="12.2" height="24.65" shape-rendering="crispEdges"/><rect fill="#030303" x="951.6" y="245.5" width="24.4" height="24.65" shape-rendering="crispEdges"/><rect fill="#030303" x="0" y="269.9" width="24.4" height="24.65" shape-rendering="crispEdges"/><rect fill="#151515" x="24.4" y="269.9" width="12.2" height="24.65" shape-rendering="crispEdges"/><rect fill="#161616" x="36.6" y="269.9" width="12.2" height="24.65" shape-rendering="crispEdges"/><rect fill="#191919" x="48.8" y="269.9" width="268.4" height="24.65" shape-rendering="crispEdges"/><rect fill="#151515" x="317.2" y="269.9" width="12.2" height="24.65" shape-rendering="crispEdges"/><rect fill="#161616" x="329.4" y="269.9" width="12.2" height="24.65" shape-rendering="crispEdges"/><rect fill="#191919" x="341.6" y="269.9" width="268.4" height="24.65" shape-rendering="crispEdges"/><rect fill="#151515" x="610" y="269.9" width="12.2" height="24.65" shape-rendering="crispEdges"/><rect fill="#191919" x="622.2" y="269.9" width="12.2" height="24.65" shape-rendering="crispEdges"/><rect fill="#1e1e1e" x="634.4" y="269.9" width="280.6" height="24.65" shape-rendering="crispEdges"/><rect fill="#151515" x="915" y="269.9" width="12.2" height="24.65" shape-rendering="crispEdges"/><rect fill="#151515" x="927.2" y="269.9" width="12.2" height="24.65" shape-rendering="crispEdges"/><rect fill="#040404" x="939.4" y="269.9" width="12.2" height="24.65" shape-rendering="crispEdges"/><rect fill="#030303" x="951.6" y="269.9" width="24.4" height="24.65" shape-rendering="crispEdges"/><rect fill="#030303" x="0" y="294.3" width="24.4" height="24.65" shape-rendering="crispEdges"/><rect fill="#151515" x="24.4" y="294.3" width="12.2" height="24.65" shape-rendering="crispEdges"/><rect fill="#161616" x="36.6" y="294.3" width="12.2" height="24.65" shape-rendering="crispEdges"/><rect fill="#191919" x="48.8" y="294.3" width="24.4" height="24.65" shape-rendering="crispEdges"/><rect fill="#1b1b1b" x="73.2" y="294.3" width="97.6" height="24.65" shape-rendering="crispEdges"/><rect fill="#1b1b1b" x="170.8" y="294.3" width="97.6" height="24.65" shape-rendering="crispEdges"/><rect fill="#1b1b1b" x="268.4" y="294.3" width="12.2" height="24.65" shape-rendering="crispEdges"/><rect fill="#1b1b1b" x="280.6" y="294.3" width="12.2" height="24.65" shape-rendering="crispEdges"/><rect fill="#191919" x="292.8" y="294.3" width="24.4" height="24.65" shape-rendering="crispEdges"/><rect fill="#151515" x="317.2" y="294.3" width="12.2" height="24.65" shape-rendering="crispEdges"/><rect fill="#161616" x="329.4" y="294.3" width="12.2" height="24.65" shape-rendering="crispEdges"/><rect fill="#191919" x="341.6" y="294.3" width="24.4" height="24.65" shape-rendering="crispEdges"/><rect fill="#1b1b1b" x="366" y="294.3" width="73.2" height="24.65" shape-rendering="crispEdges"/><rect fill="#1b1b1b" x="439.2" y="294.3" width="122" height="24.65" shape-rendering="crispEdges"/><rect fill="#1b1b1b" x="561.2" y="294.3" width="12.2" height="24.65" shape-rendering="crispEdges"/><rect fill="#1b1b1b" x="573.4" y="294.3" width="12.2" height="24.65" shape-rendering="crispEdges"/><rect fill="#191919" x="585.6" y="294.3" width="24.4" height="24.65" shape-rendering="crispEdges"/><rect fill="#151515" x="610" y="294.3" width="12.2" height="24.65" shape-rendering="crispEdges"/><rect fill="#191919" x="622.2" y="294.3" width="12.2" height="24.65" shape-rendering="crispEdges"/><rect fill="#1e1e1e" x="634.4" y="294.3" width="24.4" height="24.65" shape-rendering="crispEdges"/><rect fill="#1e1e1e" x="658.8" y="294.3" width="48.8" height="24.65" shape-rendering="crispEdges"/><rect fill="#1e1e1e" x="707.6" y="294.3" width="158.6" height="24.65" shape-rendering="crispEdges"/><rect fill="#1e1e1e" x="866.2" y="294.3" width="12.2" height="24.65" shape-rendering="crispEdges"/><rect fill="#1e1e1e" x="878.4" y="294.3" width="12.2" height="24.65" shape-rendering="crispEdges"/><rect fill="#1e1e1e" x="890.6" y="294.3" width="24.4" height="24.65" shape-rendering="crispEdges"/><rect fill="#151515" x="915" y="294.3" width="12.2" height="24.65" shape-rendering="crispEdges"/><rect fill="#151515" x="927.2" y="294.3" width="12.2" height="24.65" shape-rendering="crispEdges"/><rect fill="#040404" x="939.4" y="294.3" width="12.2" height="24.65" shape-rendering="crispEdges"/><rect fill="#030303" x="951.6" y="294.3" width="24.4" height="24.65" shape-rendering="crispEdges"/><rect fill="#030303" x="0" y="318.7" width="24.4" height="24.65" shape-rendering="crispEdges"/><rect fill="#151515" x="24.4" y="318.7" width="12.2" height="24.65" shape-rendering="crispEdges"/><rect fill="#161616" x="36.6" y="318.7" width="12.2" height="24.65" shape-rendering="crispEdges"/><rect fill="#191919" x="48.8" y="318.7" width="268.4" height="24.65" shape-rendering="crispEdges"/><rect fill="#151515" x="317.2" y="318.7" width="12.2" height="24.65" shape-rendering="crispEdges"/><rect fill="#161616" x="329.4" y="318.7" width="12.2" height="24.65" shape-rendering="crispEdges"/><rect fill="#191919" x="341.6" y="318.7" width="268.4" height="24.65" shape-rendering="crispEdges"/><rect fill="#151515" x="610" y="318.7" width="12.2" height="24.65" shape-rendering="crispEdges"/><rect fill="#191919" x="622.2" y="318.7" width="12.2" height="24.65" shape-rendering="crispEdges"/><rect fill="#1e1e1e" x="634.4" y="318.7" width="280.6" height="24.65" shape-rendering="crispEdges"/><rect fill="#151515" x="915" y="318.7" width="12.2" height="24.65" shape-rendering="crispEdges"/><rect fill="#151515" x="927.2" y="318.7" width="12.2" height="24.65" shape-rendering="crispEdges"/><rect fill="#040404" x="939.4" y="318.7" width="12.2" height="24.65" shape-rendering="crispEdges"/><rect fill="#030303" x="951.6" y="318.7" width="24.4" height="24.65" shape-rendering="crispEdges"/><rect fill="#030303" x="0" y="343.1" width="24.4" height="24.65" shape-rendering="crispEdges"/><rect fill="#151515" x="24.4" y="343.1" width="12.2" height="24.65" shape-rendering="crispEdges"/><rect fill="#191919" x="36.6" y="343.1" width="12.2" height="24.65" shape-rendering="crispEdges"/><rect fill="#1e1e1e" x="48.8" y="343.1" width="866.2" height="24.65" shape-rendering="crispEdges"/><rect fill="#151515" x="915" y="343.1" width="12.2" height="24.65" shape-rendering="crispEdges"/><rect fill="#151515" x="927.2" y="343.1" width="12.2" height="24.65" shape-rendering="crispEdges"/><rect fill="#040404" x="939.4" y="343.1" width="12.2" height="24.65" shape-rendering="crispEdges"/><rect fill="#030303" x="951.6" y="343.1" width="24.4" height="24.65" shape-rendering="crispEdges"/><rect fill="#030303" x="0" y="367.5" width="24.4" height="24.65" shape-rendering="crispEdges"/><rect fill="#151515" x="24.4" y="367.5" width="12.2" height="24.65" shape-rendering="crispEdges"/><rect fill="#191919" x="36.6" y="367.5" width="12.2" height="24.65" shape-rendering="crispEdges"/><rect fill="#1e1e1e" x="48.8" y="367.5" width="24.4" height="24.65" shape-rendering="crispEdges"/><rect fill="#1e1e1e" x="73.2" y="367.5" width="488" height="24.65" shape-rendering="crispEdges"/><rect fill="#1e1e1e" x="561.2" y="367.5" width="329.4" height="24.65" shape-rendering="crispEdges"/><rect fill="#1e1e1e" x="890.6" y="367.5" width="24.4" height="24.65" shape-rendering="crispEdges"/><rect fill="#151515" x="915" y="367.5" width="12.2" height="24.65" shape-rendering="crispEdges"/><rect fill="#151515" x="927.2" y="367.5" width="12.2" height="24.65" shape-rendering="crispEdges"/><rect fill="#040404" x="939.4" y="367.5" width="12.2" height="24.65" shape-rendering="crispEdges"/><rect fill="#030303" x="951.6" y="367.5" width="24.4" height="24.65" shape-rendering="crispEdges"/><rect fill="#030303" x="0" y="391.9" width="24.4" height="24.65" shape-rendering="crispEdges"/><rect fill="#151515" x="24.4" y="391.9" width="12.2" height="24.65" shape-rendering="crispEdges"/><rect fill="#191919" x="36.6" y="391.9" width="12.2" height="24.65" shape-rendering="crispEdges"/><rect fill="#1e1e1e" x="48.8" y="391.9" width="866.2" height="24.65" shape-rendering="crispEdges"/><rect fill="#151515" x="915" y="391.9" width="12.2" height="24.65" shape-rendering="crispEdges"/><rect fill="#151515" x="927.2" y="391.9" width="12.2" height="24.65" shape-rendering="crispEdges"/><rect fill="#040404" x="939.4" y="391.9" width="12.2" height="24.65" shape-rendering="crispEdges"/><rect fill="#030303" x="951.6" y="391.9" width="24.4" height="24.65" shape-rendering="crispEdges"/><rect fill="#030303" x="0" y="416.3" width="24.4" height="24.65" shape-rendering="crispEdges"/><rect fill="#151515" x="24.4" y="416.3" width="12.2" height="24.65" shape-rendering="crispEdges"/><rect fill="#151515" x="36.6" y="416.3" width="536.8" height="24.65" shape-rendering="crispEdges"/><rect fill="#151515" x="573.4" y="416.3" width="353.8" height="24.65" shape-rendering="crispEdges"/><rect fill="#151515" x="927.2" y="416.3" width="12.2" height="24.65" shape-rendering="crispEdges"/><rect fill="#040404" x="939.4" y="416.3" width="12.2" height="24.65" shape-rendering="crispEdges"/><rect fill="#030303" x="951.6" y="416.3" width="24.4" height="24.65" shape-rendering="crispEdges"/><rect fill="#030303" x="0" y="440.7" width="24.4" height="24.65" shape-rendering="crispEdges"/><rect fill="#151515" x="24.4" y="440.7" width="12.2" height="24.65" shape-rendering="crispEdges"/><rect fill="#1e1e1e" x="36.6" y="440.7" width="170.8" height="24.65" shape-rendering="crispEdges"/><rect fill="#656565" x="207.4" y="440.7" width="183" height="24.65" shape-rendering="crispEdges"/><rect fill="#1e1e1e" x="390.4" y="440.7" width="170.8" height="24.65" shape-rendering="crispEdges"/><rect fill="#1e1e1e" x="561.2" y="440.7" width="183" height="24.65" shape-rendering="crispEdges"/><rect fill="#1e1e1e" x="744.2" y="440.7" width="183" height="24.65" shape-rendering="crispEdges"/><rect fill="#151515" x="927.2" y="440.7" width="12.2" height="24.65" shape-rendering="crispEdges"/><rect fill="#040404" x="939.4" y="440.7" width="12.2" height="24.65" shape-rendering="crispEdges"/><rect fill="#030303" x="951.6" y="440.7" width="24.4" height="24.65" shape-rendering="crispEdges"/><rect fill="#030303" x="0" y="465.1" width="24.4" height="24.65" shape-rendering="crispEdges"/><rect fill="#151515" x="24.4" y="465.1" width="12.2" height="24.65" shape-rendering="crispEdges"/><rect fill="#1e1e1e" x="36.6" y="465.1" width="48.8" height="24.65" shape-rendering="crispEdges"/><rect fill="#1e1e1e" x="85.4" y="465.1" width="73.2" height="24.65" shape-rendering="crispEdges"/><rect fill="#1e1e1e" x="158.6" y="465.1" width="48.8" height="24.65" shape-rendering="crispEdges"/><rect fill="#656565" x="207.4" y="465.1" width="24.4" height="24.65" shape-rendering="crispEdges"/><rect fill="#656565" x="231.8" y="465.1" width="122" height="24.65" shape-rendering="crispEdges"/><rect fill="#656565" x="353.8" y="465.1" width="36.6" height="24.65" shape-rendering="crispEdges"/><rect fill="#1e1e1e" x="390.4" y="465.1" width="36.6" height="24.65" shape-rendering="crispEdges"/><rect fill="#1e1e1e" x="427" y="465.1" width="97.6" height="24.65" shape-rendering="crispEdges"/><rect fill="#1e1e1e" x="524.6" y="465.1" width="36.6" height="24.65" shape-rendering="crispEdges"/><rect fill="#1e1e1e" x="561.2" y="465.1" width="48.8" height="24.65" shape-rendering="crispEdges"/><rect fill="#1e1e1e" x="610" y="465.1" width="73.2" height="24.65" shape-rendering="crispEdges"/><rect fill="#1e1e1e" x="683.2" y="465.1" width="61" height="24.65" shape-rendering="crispEdges"/><rect fill="#1e1e1e" x="744.2" y="465.1" width="48.8" height="24.65" shape-rendering="crispEdges"/><rect fill="#1e1e1e" x="793" y="465.1" width="73.2" height="24.65" shape-rendering="crispEdges"/><rect fill="#1e1e1e" x="866.2" y="465.1" width="61" height="24.65" shape-rendering="crispEdges"/><rect fill="#151515" x="927.2" y="465.1" width="12.2" height="24.65" shape-rendering="crispEdges"/><rect fill="#040404" x="939.4" y="465.1" width="12.2" height="24.65" shape-rendering="crispEdges"/><rect fill="#030303" x="951.6" y="465.1" width="24.4" height="24.65" shape-rendering="crispEdges"/><rect fill="#030303" x="0" y="489.5" width="24.4" height="24.65" shape-rendering="crispEdges"/><rect fill="#151515" x="24.4" y="489.5" width="12.2" height="24.65" shape-rendering="crispEdges"/><rect fill="#1e1e1e" x="36.6" y="489.5" width="170.8" height="24.65" shape-rendering="crispEdges"/><rect fill="#656565" x="207.4" y="489.5" width="183" height="24.65" shape-rendering="crispEdges"/><rect fill="#1e1e1e" x="390.4" y="489.5" width="170.8" height="24.65" shape-rendering="crispEdges"/><rect fill="#1e1e1e" x="561.2" y="489.5" width="183" height="24.65" shape-rendering="crispEdges"/><rect fill="#1e1e1e" x="744.2" y="489.5" width="183" height="24.65" shape-rendering="crispEdges"/><rect fill="#151515" x="927.2" y="489.5" width="12.2" height="24.65" shape-rendering="crispEdges"/><rect fill="#040404" x="939.4" y="489.5" width="12.2" height="24.65" shape-rendering="crispEdges"/><rect fill="#030303" x="951.6" y="489.5" width="24.4" height="24.65" shape-rendering="crispEdges"/><rect fill="#030303" x="0" y="513.9" width="24.4" height="24.65" shape-rendering="crispEdges"/><rect fill="#040404" x="24.4" y="513.9" width="12.2" height="24.65" shape-rendering="crispEdges"/><rect fill="#040404" x="36.6" y="513.9" width="902.8" height="24.65" shape-rendering="crispEdges"/><rect fill="#040404" x="939.4" y="513.9" width="12.2" height="24.65" shape-rendering="crispEdges"/><rect fill="#030303" x="951.6" y="513.9" width="24.4" height="24.65" shape-rendering="crispEdges"/><rect fill="#040404" x="0" y="538.3" width="12.2" height="24.65" shape-rendering="crispEdges"/><rect fill="#040404" x="12.2" y="538.3" width="24.4" height="24.65" shape-rendering="crispEdges"/><rect fill="#040404" x="36.6" y="538.3" width="24.4" height="24.65" shape-rendering="crispEdges"/><rect fill="#040404" x="61" y="538.3" width="122" height="24.65" shape-rendering="crispEdges"/><rect fill="#040404" x="183" y="538.3" width="24.4" height="24.65" shape-rendering="crispEdges"/><rect fill="#040404" x="207.4" y="538.3" width="97.6" height="24.65" shape-rendering="crispEdges"/><rect fill="#040404" x="305" y="538.3" width="73.2" height="24.65" shape-rendering="crispEdges"/><rect fill="#040404" x="378.2" y="538.3" width="97.6" height="24.65" shape-rendering="crispEdges"/><rect fill="#040404" x="475.8" y="538.3" width="97.6" height="24.65" shape-rendering="crispEdges"/><rect fill="#040404" x="573.4" y="538.3" width="97.6" height="24.65" shape-rendering="crispEdges"/><rect fill="#040404" x="671" y="538.3" width="24.4" height="24.65" shape-rendering="crispEdges"/><rect fill="#040404" x="695.4" y="538.3" width="97.6" height="24.65" shape-rendering="crispEdges"/><rect fill="#040404" x="793" y="538.3" width="24.4" height="24.65" shape-rendering="crispEdges"/><rect fill="#040404" x="817.4" y="538.3" width="97.6" height="24.65" shape-rendering="crispEdges"/><rect fill="#040404" x="915" y="538.3" width="24.4" height="24.65" shape-rendering="crispEdges"/><rect fill="#040404" x="939.4" y="538.3" width="24.4" height="24.65" shape-rendering="crispEdges"/><rect fill="#040404" x="963.8" y="538.3" width="12.2" height="24.65" shape-rendering="crispEdges"/><rect fill="#040404" x="0" y="562.7" width="12.2" height="24.65" shape-rendering="crispEdges"/><rect fill="#040404" x="12.2" y="562.7" width="24.4" height="24.65" shape-rendering="crispEdges"/><rect fill="#040404" x="36.6" y="562.7" width="85.4" height="24.65" shape-rendering="crispEdges"/><rect fill="#040404" x="122" y="562.7" width="24.4" height="24.65" shape-rendering="crispEdges"/><rect fill="#040404" x="146.4" y="562.7" width="61" height="24.65" shape-rendering="crispEdges"/><rect fill="#040404" x="207.4" y="562.7" width="756.4" height="24.65" shape-rendering="crispEdges"/><rect fill="#040404" x="963.8" y="562.7" width="12.2" height="24.65" shape-rendering="crispEdges"/>
    <g class="terminal-1491448710-matrix">
    <text class="terminal-1491448710-r2" x="976" y="20" textLength="12.2" clip-path="url(#terminal-1491448710-line-0)">
</text><text class="terminal-1491448710-r2" x="976" y="44.4" textLength="12.2" clip-path="url(#terminal-1491448710-line-1)">
</text><text class="terminal-1491448710-r4" x="36.6" y="68.8" textLength="24.4" clip-path="url(#terminal-1491448710-line-2)">对话</text><text class="terminal-1491448710-r2" x="976" y="68.8" textLength="12.2" clip-path="url(#terminal-1491448710-line-2)">
</text><text class="terminal-1491448710-r3" x="36.6" y="93.2" textLength="183" clip-path="url(#terminal-1491448710-line-3)">偏好记忆&#160;·&#160;由你决定记住什么</text><text class="terminal-1491448710-r2" x="976" y="93.2" textLength="12.2" clip-path="url(#terminal-1491448710-line-3)">
</text><text class="terminal-1491448710-r3" x="36.6" y="117.6" textLength="341.6" clip-path="url(#terminal-1491448710-line-4)">确认后用于本项目的新会话；当前要求优先，不授权任何发布。</text><text class="terminal-1491448710-r2" x="976" y="117.6" textLength="12.2" clip-path="url(#terminal-1491448710-line-4)">
</text><text class="terminal-1491448710-r5" x="36.6" y="142" textLength="402.6" clip-path="url(#terminal-1491448710-line-5)">待确认&#160;·&#160;表达风格&#160;·&#160;表达克制，避免标题党；技术结论要有证据。</text><text class="terminal-1491448710-r2" x="976" y="142" textLength="12.2" clip-path="url(#terminal-1491448710-line-5)">
</text><text class="terminal-1491448710-r2" x="976" y="166.4" textLength="12.2" clip-path="url(#terminal-1491448710-line-6)">
</text><text class="terminal-1491448710-r2" x="976" y="190.8" textLength="12.2" clip-path="url(#terminal-1491448710-line-7)">
</text><text class="terminal-1491448710-r6" x="36.6" y="215.2" textLength="390.4" clip-path="url(#terminal-1491448710-line-8)">来源会话&#160;6e832447bf7a&#160;·&#160;轮次&#160;demo-turn</text><text class="terminal-1491448710-r2" x="976" y="215.2" textLength="12.2" clip-path="url(#terminal-1491448710-line-8)">
</text><text class="terminal-1491448710-r6" x="36.6" y="239.6" textLength="353.8" clip-path="url(#terminal-1491448710-line-9)">更新&#160;2026-09-21&#160;·&#160;到期&#160;2027-09-21</text><text class="terminal-1491448710-r2" x="976" y="239.6" textLength="12.2" clip-path="url(#terminal-1491448710-line-9)">
</text><text class="terminal-1491448710-r6" x="36.6" y="264" textLength="305" clip-path="url(#terminal-1491448710-line-10)">ID&#160;22efc1bf3884c356&#160;·&#160;待确认</text><text class="terminal-1491448710-r2" x="976" y="264" textLength="12.2" clip-path="url(#terminal-1491448710-line-10)">
</text><text class="terminal-1491448710-r7" x="36.6" y="288.4" textLength="12.2" clip-path="url(#terminal-1491448710-line-11)">▊</text><text class="terminal-1491448710-r8" x="48.8" y="288.4" textLength="268.4" clip-path="url(#terminal-1491448710-line-11)">▔▔▔▔▔▔▔▔▔▔▔▔▔▔▔▔▔▔▔▔▔▔</text><text class="terminal-1491448710-r8" x="317.2" y="288.4" textLength="12.2" clip-path="url(#terminal-1491448710-line-11)">▎</text><text class="terminal-1491448710-r7" x="329.4" y="288.4" textLength="12.2" clip-path="url(#terminal-1491448710-line-11)">▊</text><text class="terminal-1491448710-r8" x="341.6" y="288.4" textLength="268.4" clip-path="url(#terminal-1491448710-line-11)">▔▔▔▔▔▔▔▔▔▔▔▔▔▔▔▔▔▔▔▔▔▔</text><text class="terminal-1491448710-r8" x="610" y="288.4" textLength="12.2" clip-path="url(#terminal-1491448710-line-11)">▎</text><text class="terminal-1491448710-r7" x="622.2" y="288.4" textLength="12.2" clip-path="url(#terminal-1491448710-line-11)">▊</text><text class="terminal-1491448710-r9" x="634.4" y="288.4" textLength="280.6" clip-path="url(#terminal-1491448710-line-11)">▔▔▔▔▔▔▔▔▔▔▔▔▔▔▔▔▔▔▔▔▔▔▔</text><text class="terminal-1491448710-r9" x="915" y="288.4" textLength="12.2" clip-path="url(#terminal-1491448710-line-11)">▎</text><text class="terminal-1491448710-r2" x="976" y="288.4" textLength="12.2" clip-path="url(#terminal-1491448710-line-11)">
</text><text class="terminal-1491448710-r7" x="36.6" y="312.8" textLength="12.2" clip-path="url(#terminal-1491448710-line-12)">▊</text><text class="terminal-1491448710-r10" x="73.2" y="312.8" textLength="48.8" clip-path="url(#terminal-1491448710-line-12)">表达风格</text><text class="terminal-1491448710-r11" x="280.6" y="312.8" textLength="12.2" clip-path="url(#terminal-1491448710-line-12)">▼</text><text class="terminal-1491448710-r8" x="317.2" y="312.8" textLength="12.2" clip-path="url(#terminal-1491448710-line-12)">▎</text><text class="terminal-1491448710-r7" x="329.4" y="312.8" textLength="12.2" clip-path="url(#terminal-1491448710-line-12)">▊</text><text class="terminal-1491448710-r10" x="366" y="312.8" textLength="36.6" clip-path="url(#terminal-1491448710-line-12)">此项目</text><text class="terminal-1491448710-r11" x="573.4" y="312.8" textLength="12.2" clip-path="url(#terminal-1491448710-line-12)">▼</text><text class="terminal-1491448710-r8" x="610" y="312.8" textLength="12.2" clip-path="url(#terminal-1491448710-line-12)">▎</text><text class="terminal-1491448710-r7" x="622.2" y="312.8" textLength="12.2" clip-path="url(#terminal-1491448710-line-12)">▊</text><text class="terminal-1491448710-r12" x="658.8" y="312.8" textLength="24.4" clip-path="url(#terminal-1491448710-line-12)">一年</text><text class="terminal-1491448710-r13" x="878.4" y="312.8" textLength="12.2" clip-path="url(#terminal-1491448710-line-12)">▼</text><text class="terminal-1491448710-r9" x="915" y="312.8" textLength="12.2" clip-path="url(#terminal-1491448710-line-12)">▎</text><text class="terminal-1491448710-r2" x="976" y="312.8" textLength="12.2" clip-path="url(#terminal-1491448710-line-12)">
</text><text class="terminal-1491448710-r7" x="36.6" y="337.2" textLength="12.2" clip-path="url(#terminal-1491448710-line-13)">▊</text><text class="terminal-1491448710-r8" x="48.8" y="337.2" textLength="268.4" clip-path="url(#terminal-1491448710-line-13)">▁▁▁▁▁▁▁▁▁▁▁▁▁▁▁▁▁▁▁▁▁▁</text><text class="terminal-1491448710-r8" x="317.2" y="337.2" textLength="12.2" clip-path="url(#terminal-1491448710-line-13)">▎</text><text class="terminal-1491448710-r7" x="329.4" y="337.2" textLength="12.2" clip-path="url(#terminal-1491448710-line-13)">▊</text><text class="terminal-1491448710-r8" x="341.6" y="337.2" textLength="268.4" clip-path="url(#terminal-1491448710-line-13)">▁▁▁▁▁▁▁▁▁▁▁▁▁▁▁▁▁▁▁▁▁▁</text><text class="terminal-1491448710-r8" x="610" y="337.2" textLength="12.2" clip-path="url(#terminal-1491448710-line-13)">▎</text><text class="terminal-1491448710-r7" x="622.2" y="337.2" textLength="12.2" clip-path="url(#terminal-1491448710-line-13)">▊</text><text class="terminal-1491448710-r9" x="634.4" y="337.2" textLength="280.6" clip-path="url(#terminal-1491448710-line-13)">▁▁▁▁▁▁▁▁▁▁▁▁▁▁▁▁▁▁▁▁▁▁▁</text><text class="terminal-1491448710-r9" x="915" y="337.2" textLength="12.2" clip-path="url(#terminal-1491448710-line-13)">▎</text><text class="terminal-1491448710-r2" x="976" y="337.2" textLength="12.2" clip-path="url(#terminal-1491448710-line-13)">
</text><text class="terminal-1491448710-r7" x="36.6" y="361.6" textLength="12.2" clip-path="url(#terminal-1491448710-line-14)">▊</text><text class="terminal-1491448710-r9" x="48.8" y="361.6" textLength="866.2" clip-path="url(#terminal-1491448710-line-14)">▔▔▔▔▔▔▔▔▔▔▔▔▔▔▔▔▔▔▔▔▔▔▔▔▔▔▔▔▔▔▔▔▔▔▔▔▔▔▔▔▔▔▔▔▔▔▔▔▔▔▔▔▔▔▔▔▔▔▔▔▔▔▔▔▔▔▔▔▔▔▔</text><text class="terminal-1491448710-r9" x="915" y="361.6" textLength="12.2" clip-path="url(#terminal-1491448710-line-14)">▎</text><text class="terminal-1491448710-r2" x="976" y="361.6" textLength="12.2" clip-path="url(#terminal-1491448710-line-14)">
</text><text class="terminal-1491448710-r7" x="36.6" y="386" textLength="12.2" clip-path="url(#terminal-1491448710-line-15)">▊</text><text class="terminal-1491448710-r12" x="73.2" y="386" textLength="244" clip-path="url(#terminal-1491448710-line-15)">表达克制，避免标题党；技术结论要有证据。</text><text class="terminal-1491448710-r9" x="915" y="386" textLength="12.2" clip-path="url(#terminal-1491448710-line-15)">▎</text><text class="terminal-1491448710-r2" x="976" y="386" textLength="12.2" clip-path="url(#terminal-1491448710-line-15)">
</text><text class="terminal-1491448710-r7" x="36.6" y="410.4" textLength="12.2" clip-path="url(#terminal-1491448710-line-16)">▊</text><text class="terminal-1491448710-r9" x="48.8" y="410.4" textLength="866.2" clip-path="url(#terminal-1491448710-line-16)">▁▁▁▁▁▁▁▁▁▁▁▁▁▁▁▁▁▁▁▁▁▁▁▁▁▁▁▁▁▁▁▁▁▁▁▁▁▁▁▁▁▁▁▁▁▁▁▁▁▁▁▁▁▁▁▁▁▁▁▁▁▁▁▁▁▁▁▁▁▁▁</text><text class="terminal-1491448710-r9" x="915" y="410.4" textLength="12.2" clip-path="url(#terminal-1491448710-line-16)">▎</text><text class="terminal-1491448710-r2" x="976" y="410.4" textLength="12.2" clip-path="url(#terminal-1491448710-line-16)">
</text><text class="terminal-1491448710-r14" x="36.6" y="434.8" textLength="268.4" clip-path="url(#terminal-1491448710-line-17)">不保存凭据；忘记偏好不会删除聊天记录或文章。</text><text class="terminal-1491448710-r2" x="976" y="434.8" textLength="12.2" clip-path="url(#terminal-1491448710-line-17)">
</text><text class="terminal-1491448710-r15" x="36.6" y="459.2" textLength="170.8" clip-path="url(#terminal-1491448710-line-18)">▔▔▔▔▔▔▔▔▔▔▔▔▔▔</text><text class="terminal-1491448710-r16" x="207.4" y="459.2" textLength="183" clip-path="url(#terminal-1491448710-line-18)">▔▔▔▔▔▔▔▔▔▔▔▔▔▔▔</text><text class="terminal-1491448710-r15" x="390.4" y="459.2" textLength="170.8" clip-path="url(#terminal-1491448710-line-18)">▔▔▔▔▔▔▔▔▔▔▔▔▔▔</text><text class="terminal-1491448710-r15" x="561.2" y="459.2" textLength="183" clip-path="url(#terminal-1491448710-line-18)">▔▔▔▔▔▔▔▔▔▔▔▔▔▔▔</text><text class="terminal-1491448710-r15" x="744.2" y="459.2" textLength="183" clip-path="url(#terminal-1491448710-line-18)">▔▔▔▔▔▔▔▔▔▔▔▔▔▔▔</text><text class="terminal-1491448710-r2" x="976" y="459.2" textLength="12.2" clip-path="url(#terminal-1491448710-line-18)">
</text><text class="terminal-1491448710-r17" x="85.4" y="483.6" textLength="48.8" clip-path="url(#terminal-1491448710-line-19)">&#160;新增&#160;</text><text class="terminal-1491448710-r5" x="231.8" y="483.6" textLength="73.2" clip-path="url(#terminal-1491448710-line-19)">&#160;确认保存&#160;</text><text class="terminal-1491448710-r17" x="427" y="483.6" textLength="61" clip-path="url(#terminal-1491448710-line-19)">&#160;不保存&#160;</text><text class="terminal-1491448710-r17" x="610" y="483.6" textLength="48.8" clip-path="url(#terminal-1491448710-line-19)">&#160;忘记&#160;</text><text class="terminal-1491448710-r17" x="793" y="483.6" textLength="48.8" clip-path="url(#terminal-1491448710-line-19)">&#160;关闭&#160;</text><text class="terminal-1491448710-r2" x="976" y="483.6" textLength="12.2" clip-path="url(#terminal-1491448710-line-19)">
</text><text class="terminal-1491448710-r18" x="36.6" y="508" textLength="170.8" clip-path="url(#terminal-1491448710-line-20)">▁▁▁▁▁▁▁▁▁▁▁▁▁▁</text><text class="terminal-1491448710-r19" x="207.4" y="508" textLength="183" clip-path="url(#terminal-1491448710-line-20)">▁▁▁▁▁▁▁▁▁▁▁▁▁▁▁</text><text class="terminal-1491448710-r18" x="390.4" y="508" textLength="170.8" clip-path="url(#terminal-1491448710-line-20)">▁▁▁▁▁▁▁▁▁▁▁▁▁▁</text><text class="terminal-1491448710-r18" x="561.2" y="508" textLength="183" clip-path="url(#terminal-1491448710-line-20)">▁▁▁▁▁▁▁▁▁▁▁▁▁▁▁</text><text class="terminal-1491448710-r18" x="744.2" y="508" textLength="183" clip-path="url(#terminal-1491448710-line-20)">▁▁▁▁▁▁▁▁▁▁▁▁▁▁▁</text><text class="terminal-1491448710-r2" x="976" y="508" textLength="12.2" clip-path="url(#terminal-1491448710-line-20)">
</text><text class="terminal-1491448710-r2" x="976" y="532.4" textLength="12.2" clip-path="url(#terminal-1491448710-line-21)">
</text><text class="terminal-1491448710-r21" x="36.6" y="556.8" textLength="24.4" clip-path="url(#terminal-1491448710-line-22)">^N</text><text class="terminal-1491448710-r20" x="61" y="556.8" textLength="85.4" clip-path="url(#terminal-1491448710-line-22)">&#160;新对话&#160;&#160;&#160;</text><text class="terminal-1491448710-r21" x="183" y="556.8" textLength="24.4" clip-path="url(#terminal-1491448710-line-22)">^P</text><text class="terminal-1491448710-r20" x="207.4" y="556.8" textLength="73.2" clip-path="url(#terminal-1491448710-line-22)">&#160;命令&#160;&#160;&#160;</text><text class="terminal-1491448710-r21" x="305" y="556.8" textLength="73.2" clip-path="url(#terminal-1491448710-line-22)">/model</text><text class="terminal-1491448710-r20" x="378.2" y="556.8" textLength="73.2" clip-path="url(#terminal-1491448710-line-22)">&#160;模型&#160;&#160;&#160;</text><text class="terminal-1491448710-r21" x="475.8" y="556.8" textLength="97.6" clip-path="url(#terminal-1491448710-line-22)">/session</text><text class="terminal-1491448710-r20" x="573.4" y="556.8" textLength="73.2" clip-path="url(#terminal-1491448710-line-22)">&#160;会话&#160;&#160;&#160;</text><text class="terminal-1491448710-r21" x="671" y="556.8" textLength="24.4" clip-path="url(#terminal-1491448710-line-22)">^S</text><text class="terminal-1491448710-r20" x="695.4" y="556.8" textLength="73.2" clip-path="url(#terminal-1491448710-line-22)">&#160;保存&#160;&#160;&#160;</text><text class="terminal-1491448710-r21" x="793" y="556.8" textLength="24.4" clip-path="url(#terminal-1491448710-line-22)">^D</text><text class="terminal-1491448710-r20" x="817.4" y="556.8" textLength="73.2" clip-path="url(#terminal-1491448710-line-22)">&#160;详情&#160;&#160;&#160;</text><text class="terminal-1491448710-r21" x="915" y="556.8" textLength="24.4" clip-path="url(#terminal-1491448710-line-22)">^O</text><text class="terminal-1491448710-r2" x="976" y="556.8" textLength="12.2" clip-path="url(#terminal-1491448710-line-22)">
</text><text class="terminal-1491448710-r20" x="36.6" y="581.2" textLength="61" clip-path="url(#terminal-1491448710-line-23)">预览&#160;&#160;&#160;</text><text class="terminal-1491448710-r21" x="122" y="581.2" textLength="24.4" clip-path="url(#terminal-1491448710-line-23)">^Q</text><text class="terminal-1491448710-r20" x="146.4" y="581.2" textLength="36.6" clip-path="url(#terminal-1491448710-line-23)">&#160;退出</text>
    </g>
    </g>
</svg>
